<?xml version="1.0" encoding="UTF-8"?>
<svg width="600px" height="181px" viewBox="0 0 600 181" version="1.1" xmlns="http://www.w3.org/2000/svg" xmlns:xlink="http://www.w3.org/1999/xlink">
    <!-- Generator: Sketch 43.2 (39069) - http://www.bohemiancoding.com/sketch -->
    <title>Story Parcel Copy 3</title>
    <desc>Created with Sketch.</desc>
    <defs></defs>
    <g id="Page-1" stroke="none" stroke-width="1" fill="none" fill-rule="evenodd">
        <path d="M0.218181822,107.418184 C0.606062556,105.042414 1.27272257,102.848497 2.21818186,100.836365 C3.16364114,98.824234 4.4484768,96.8727384 6.07272738,94.9818198 C7.69697795,93.0909012 9.34544634,91.4303117 11.018182,90.0000015 C12.6909177,88.5696913 14.4484759,87.2727346 16.2909094,86.1090924 C16.4363646,86.0121222 16.6666654,85.8909113 16.9818185,85.745456 C17.2969716,85.6000007 17.5272723,85.4787898 17.6727276,85.3818196 C20.1454672,84.0727221 21.5999982,82.9333396 22.036364,81.9636377 C22.2303044,81.575757 22.3272731,81.0181868 22.3272731,80.2909104 C22.3272731,79.3212086 22.1575778,78.0848573 21.8181822,76.5818195 C21.6727269,75.8545431 21.1636411,73.2000241 20.2909094,68.618183 C19.4181778,64.0363418 18.642428,60.5333465 17.9636367,58.1090919 C16.3151435,51.1272387 13.2848708,45.721232 8.87272742,41.8909098 C7.2242343,40.387872 6.25454701,38.3272865 5.96363646,35.7090915 C5.91515137,35.2242406 5.89090919,34.739397 5.89090919,34.254546 C5.89090919,32.2666573 6.39999502,30.5212202 7.41818194,29.0181823 C8.48485396,27.272719 10.5696816,25.7454615 13.6727275,24.436364 C14.448489,24.1454535 15.6121137,23.8787895 17.1636367,23.636364 C18.7151596,23.3939386 19.8303,23.1757589 20.5090913,22.9818186 C21.9151589,22.5454527 23.2242368,22.3272731 24.436364,22.3272731 C26.521223,22.3272731 28.4121132,22.9575698 30.1090914,24.2181822 C32.7757715,26.2545561 34.4969664,29.1636179 35.2727279,32.9454551 C35.9515192,36.3394115 36.2909097,39.9030123 36.2909097,43.6363644 L36.2909097,45.6000008 C36.2909097,45.9878815 36.4484839,46.581815 36.763637,47.381819 C37.0787901,48.181823 37.5030283,49.115147 38.0363643,50.181819 C38.5697003,51.248491 39.1636338,52.3515103 39.8181825,53.49091 C40.4727312,54.6303096 41.1515123,55.7818133 41.8545462,56.9454555 C42.55758,58.1090977 43.1757556,59.1272694 43.7090916,60.000001 C44.2424277,60.8727327 44.7272713,61.6363614 45.1636371,62.2909101 C45.600003,62.9454589 45.8181826,63.2969705 45.8181826,63.3454556 C48.4848626,67.5151735 50.5454481,72.4605787 52.0000009,78.1818195 C53.0666729,82.4000225 53.6000009,86.5696778 53.6000009,90.6909106 C53.6000009,92.1454634 53.5272744,93.5999943 53.3818191,95.0545471 C53.3818191,95.1030322 53.2969714,95.5636336 53.1272736,96.4363653 C52.9575758,97.3090969 52.8242438,97.9757569 52.7272736,98.4363653 C52.6303034,98.8969737 52.4606082,99.6727235 52.2181827,100.763638 C51.9757572,101.854553 51.7454565,102.775756 51.5272736,103.527274 C51.3090907,104.278793 51.0181845,105.248481 50.6545463,106.436365 C50.2909081,107.62425 49.9272754,108.666664 49.5636372,109.563638 C49.199999,110.460612 48.7515186,111.466663 48.2181826,112.58182 C47.6848466,113.696977 47.1393975,114.715149 46.581819,115.636366 C46.0242404,116.557582 45.3818226,117.503027 44.6545462,118.472729 C43.9272698,119.442431 43.1757622,120.31515 42.4000007,121.090911 C37.5999766,125.64851 32.2424544,127.927275 26.3272732,127.927275 C24.8727204,127.927275 23.3697051,127.781822 21.8181822,127.490911 C18.2787705,127.00606 15.2484977,126.327279 12.7272729,125.454548 C6.76360666,123.660599 2.78788877,120.024272 0.800000014,114.545456 C0.266664005,112.945448 0,111.369707 0,109.818184 C0,108.993937 0.0727265467,108.193945 0.218181822,107.418184 Z M14.6909093,111.127275 C15.2727304,112.484857 16.1212068,113.333334 17.2363639,113.672729 C17.6727298,113.769699 18.0848469,113.842426 18.4727276,113.890911 C19.8303102,113.890911 20.7999974,113.115161 21.3818185,111.563638 C21.7212142,110.496966 21.963636,109.503037 22.1090913,108.58182 C22.5939422,105.624229 22.9090906,103.006074 23.0545458,100.727274 C23.1030309,100.048483 23.1272731,99.3333388 23.1272731,98.5818198 C23.1272731,97.8303009 23.115152,96.8848558 23.0909095,95.7454562 C23.0666669,94.6060565 23.0545458,93.6242481 23.0545458,92.8000016 C22.7636353,93.042427 22.2545495,93.4545441 21.5272731,94.0363652 C20.7999967,94.6181863 20.2787898,95.0424245 19.9636367,95.3090925 C19.6484836,95.5757605 19.2242454,95.9515143 18.6909094,96.4363653 C18.1575734,96.9212162 17.7575774,97.3333333 17.4909094,97.6727289 C17.2242414,98.0121246 16.9333352,98.4121206 16.6181821,98.8727289 C16.303029,99.3333373 16.0484861,99.7818177 15.8545457,100.218184 C14.6424184,103.030319 14.0363639,105.503021 14.0363639,107.636365 C14.0363639,108.896978 14.2545435,110.060603 14.6909093,111.127275 Z M20.0727276,27.2727277 C20.3636382,28.8727358 20.8121185,30.3272667 21.4181822,31.6363642 C22.0242458,32.9454616 22.9212066,34.5090824 24.1090913,36.3272733 C25.2969761,38.1454643 26.084847,39.3939367 26.4727277,40.0727279 C26.5696979,38.9090857 26.6181823,37.8424297 26.6181823,36.8727279 C26.5696972,34.5939286 26.2545488,32.8242493 25.6727277,31.5636369 C24.7999961,29.7696885 22.933348,28.3393998 20.0727276,27.2727277 Z M103.060075,101.323807 C102.440772,101.874527 101.79829,102.463562 101.13263,103.090911 C97.7629157,106.266684 95.7144513,108.145453 94.9871749,108.727275 C93.7750476,109.696976 92.4296065,109.939398 90.9508112,109.454547 C89.4720159,108.969696 88.5386919,107.975767 88.1508111,106.472729 C87.2295944,102.739377 86.7689929,97.6485187 86.7689929,91.2000015 C86.7689929,87.6121048 86.914446,83.6363869 87.2053566,79.2727286 L87.2053566,79.1272741 C87.3508119,67.1514564 87.4235384,57.8424584 87.4235384,51.2000009 C87.4235384,47.2242233 87.3992962,44.2181927 87.3508111,42.1818189 C87.3508111,41.8424233 87.4356588,41.2969742 87.6053566,40.5454552 C87.7750544,39.7939363 87.9083864,39.2000028 88.0053566,38.763637 C89.6538497,38.6181817 92.1023101,38.3636388 95.3508113,38.0000006 C98.5993124,37.6363625 101.047773,37.3818195 102.696266,37.2363643 C102.841721,37.2363643 103.072022,37.2121221 103.387175,37.163637 C103.702328,37.1151519 103.932629,37.0909097 104.078084,37.0909097 C105.193241,36.9454544 105.95687,36.3878843 106.368993,35.4181824 C106.781117,34.4484806 106.732632,33.5030355 106.223539,32.5818187 C105.714445,31.660602 104.902332,31.1757583 103.787175,31.1272733 C99.2295764,31.1272733 93.9690229,30.7878827 88.0053566,30.1090914 C87.5689908,28.4121132 87.2780846,26.1333481 87.1326293,23.2727277 C86.987174,20.4121073 86.6599046,17.8303148 86.1508111,15.527273 C85.6417177,13.2242311 84.6599093,11.1272824 83.2053565,9.23636379 C79.6659448,5.01816081 76.1993128,2.23030986 72.8053563,0.872727287 C71.3023185,0.290906187 70.0174828,0 68.9508108,0 C68.0295941,0 67.2538442,0.21817964 66.6235381,0.654545466 C65.2659555,1.6242473 64.3932369,3.58786406 64.0053562,6.54545466 C63.5689904,10.3757769 62.9144514,18.0363065 62.0417198,29.5272732 C60.1023161,29.9636391 59.1083867,30.1818187 59.0599016,30.1818187 C57.2174681,30.0848485 54.5265859,29.8545478 50.9871742,29.4909096 C47.4477625,29.1272714 44.8296068,28.8727285 43.1326286,28.7272732 L42.987174,28.7272732 C41.8720169,28.630303 41.0477827,29.1151467 40.5144467,30.1818187 C39.9811107,31.2484907 40.0053529,32.2666624 40.587174,33.2363642 C41.7023311,35.0787977 42.35687,36.2181802 42.5508104,36.6545461 C43.423542,39.0788007 44.7204988,40.7515112 46.4417195,41.672728 C48.1629403,42.5939447 50.3811,43.0545462 53.0962651,43.0545462 C54.0174818,43.0060611 55.0114113,42.9818189 56.0780833,42.9818189 C57.1447554,42.9818189 58.3568645,42.99394 59.714447,43.0181825 C61.0720296,43.0424251 62.1629278,43.0545462 62.9871744,43.0545462 C62.6477787,46.0606219 62.4295991,48.1939339 62.3326289,49.4545463 C60.1507998,74.5698238 58.9144485,89.8181564 58.6235379,95.2000016 C58.5750528,96.3636438 58.5508106,97.5030264 58.5508106,98.6181835 C58.5508106,101.769714 58.7689903,104.60605 59.2053561,107.127275 C59.7871772,110.521231 61.1447394,113.696957 63.2780835,116.654547 C67.1568908,121.793967 72.102296,124.557576 78.1144473,124.945457 C78.7447535,124.993942 79.3750503,125.018184 80.0053565,125.018184 C82.1871856,125.018184 84.2720133,124.75152 86.259902,124.218184 C88.7811268,123.539393 91.2295872,122.375768 93.6053567,120.727275 C95.9326411,119.078782 97.8720157,117.539403 99.4235386,116.109093 C100.975062,114.678783 102.914436,112.727287 105.241721,110.254547 C105.793429,109.666058 106.610192,108.735787 107.692026,107.463715 C109.419321,109.065942 111.464943,110.481066 113.828894,111.709093 C116.786485,113.406071 119.671304,114.254547 122.48344,114.254547 C123.113746,114.254547 123.744042,114.206063 124.374349,114.109093 C127.768305,113.624242 130.459187,111.781836 132.447076,108.58182 C133.174352,107.418178 133.986466,106.484854 134.88344,105.78182 C135.780414,105.078786 136.689496,104.618185 137.610713,104.400002 C138.531929,104.181819 139.53798,104.036366 140.628894,103.963638 C141.719809,103.89091 142.84707,103.903032 144.010713,104.000002 L144.737985,104.000002 C147.453151,104.048487 150.847056,103.587885 154.919804,102.618184 C159.380432,101.551512 161.901619,100.218192 162.48344,98.6181835 C162.822836,97.6484816 162.689504,96.763642 162.08344,95.963638 C161.477377,95.163634 160.665263,94.8121223 159.647077,94.9090925 C158.677375,94.9575776 157.06527,95.2242416 154.810713,95.7090925 C152.556156,96.1939434 150.483449,96.6303027 148.592531,97.0181835 C147.186463,97.309094 145.683448,97.4545471 144.08344,97.4545471 C143.550104,97.4545471 143.041018,97.4303049 142.556167,97.3818198 C140.422823,97.2848496 138.72587,96.800006 137.465258,95.9272743 C137.513743,95.6363638 137.562227,95.1878834 137.610713,94.5818198 C137.659198,93.9757561 137.707682,93.5272758 137.756167,93.2363652 C137.756167,92.5575739 138.192526,90.1575979 139.065258,86.0363651 C139.647079,83.0787745 139.962227,80.6060719 140.010713,78.6181831 C140.010713,77.7939366 139.962228,77.0666711 139.865258,76.4363649 C139.671318,75.3696929 139.562228,74.8000016 139.537985,74.727274 C139.513743,74.6545464 139.404653,74.1697027 139.210713,73.2727285 C139.016772,72.3757543 138.822835,71.8424263 138.628894,71.6727285 C138.434954,71.5030307 138.156169,71.151519 137.792531,70.618183 C137.428893,70.084847 136.980412,69.7212143 136.447076,69.5272739 C135.91374,69.3333335 135.307686,69.1878804 134.628894,69.0909103 C133.756163,68.8969699 133.125866,68.3151575 132.737985,67.3454557 C132.39859,66.472724 131.937988,65.7333375 131.356167,65.1272738 C130.774346,64.5212102 130.010717,64.0606087 129.065258,63.7454556 C128.119799,63.4303025 127.416775,63.2121229 126.956167,63.0909102 C126.495559,62.9696974 125.73193,62.8363654 124.665258,62.6909101 C123.45313,62.4484847 122.33799,62.3272738 121.319803,62.3272738 C118.604638,62.3272738 116.544053,63.1999923 115.137985,64.9454556 C114.798589,65.3818215 114.107687,66.2060557 113.065258,67.418183 C112.022828,68.6303102 111.259199,69.5393921 110.774348,70.1454557 C110.289498,70.7515194 109.64708,71.5636325 108.847076,72.5818194 C108.047072,73.6000063 107.331927,74.5454514 106.701621,75.4181831 C106.071315,76.2909147 105.46526,77.1636333 104.883439,78.036365 C102.071304,82.2545679 100.665257,86.5454342 100.665257,90.9090924 C100.665257,92.1212197 100.762226,93.3090867 100.956166,94.4727289 C101.319798,96.9549105 102.0211,99.2386013 103.060075,101.323807 Z M114.410712,101.745456 C114.750108,103.97577 115.695553,105.381817 117.247076,105.963638 C117.683442,106.109093 118.119801,106.18182 118.556167,106.18182 C119.719809,106.18182 120.907676,105.648492 122.119803,104.58182 C122.701624,104.048484 124.253124,102.206078 126.774349,99.0545471 C125.465251,97.2121136 122.6774,93.0424583 118.410712,86.545456 C115.598577,90.763659 114.19253,94.9090721 114.19253,98.9818199 C114.19253,99.9030366 114.265257,100.82424 114.410712,101.745456 Z M203.436601,99.7143941 C203.349299,100.031332 203.275788,100.368959 203.216069,100.727274 C202.537277,104.800022 200.428208,108.921193 196.888796,113.090911 C193.78575,116.775778 190.634266,118.593942 187.43425,118.545457 C186.949399,118.496971 186.488798,118.448487 186.052432,118.400002 C185.422126,118.254547 184.888798,117.963641 184.452432,117.527275 C183.628186,116.557573 183.216068,115.321222 183.216068,113.818184 C183.216068,113.090907 183.313037,112.290915 183.506978,111.418184 C183.797888,110.157571 184.222126,108.460619 184.779705,106.327275 C185.337283,104.19393 185.834248,102.230314 186.270614,100.436365 C186.70698,98.6424169 187.094855,96.9454642 187.43425,95.3454562 C188.791833,89.3333048 189.470614,81.2849003 189.470614,71.2000012 L189.470614,67.3454557 C189.422129,66.5212091 188.440321,65.5394007 186.525159,64.4000011 C184.609998,63.2606014 182.379718,62.2909141 179.83425,61.4909101 C177.288783,60.6909061 174.70699,60.1939414 172.088796,60.000001 L171.070614,60.000001 C168.93727,60.000001 167.288801,60.5090868 166.125159,61.5272738 C166.319099,57.939377 166.416068,55.9030337 166.416068,55.4181828 C166.416068,49.4060314 163.628217,46.4000008 158.052432,46.4000008 C157.664551,46.4000008 157.276676,46.424243 156.888795,46.4727281 C154.755451,46.6181833 153.203952,47.0545426 152.23425,47.781819 C151.264548,48.5090954 150.416072,49.8666576 149.688795,51.8545463 C149.349399,52.6787929 149.179704,53.4545427 149.179704,54.1818191 C149.179704,55.0060657 149.397884,55.7575733 149.83425,56.4363646 C150.610011,57.696977 151.82212,58.8848439 153.470613,60.000001 C156.573659,61.8909196 159.094846,63.1999974 161.03425,63.9272738 C162.973654,64.7515204 164.173642,65.5272702 164.63425,66.2545466 C165.094858,66.9818229 165.22819,68.2909008 165.03425,70.1818194 C164.84031,72.2666783 164.525161,75.2727089 164.088795,79.2000013 C163.65243,83.1272938 163.337281,86.0121135 163.143341,87.8545469 C162.85243,90.8121375 162.706977,93.5999885 162.706977,96.2181834 C162.706977,100.872752 163.191821,104.896954 164.161523,108.290911 C165.27668,112.169718 167.16757,115.248475 169.83425,117.527275 C174.294878,121.018201 180.040276,123.393935 187.070614,124.654548 C188.282741,124.896973 189.446366,125.018184 190.561523,125.018184 C196.282764,125.018184 201.325138,122.036396 205.688796,116.072729 C208.022152,112.973196 209.705098,109.636056 210.737654,106.061255 C214.408074,108.552882 217.914764,109.950636 221.257788,110.254547 C222.082034,110.400003 223.124448,110.254549 224.385061,109.818184 C225.500218,109.381818 227.19717,108.703037 229.47597,107.78182 C231.754769,106.860603 233.475964,106.181822 234.639606,105.745456 C234.930517,106.375763 235.07597,107.224239 235.07597,108.290911 C235.07597,110.036374 234.688095,112.363624 233.912333,115.272729 C232.554751,119.927298 231.10022,122.666665 229.548697,123.490911 C226.106256,125.236374 222.71235,127.636351 219.366879,130.690911 C216.991109,132.921226 213.185087,137.066639 207.948697,143.127275 C204.797166,147.103053 203.221424,151.393919 203.221424,156.000003 L203.221424,156.727275 C203.415364,161.575785 205.209286,166.036346 208.603242,170.109094 C211.754773,174.036386 216.60321,177.212112 223.148697,179.636367 C225.088101,180.412128 226.954749,180.800003 228.748697,180.800003 C231.754773,180.800003 234.566866,179.709105 237.185061,177.527276 C242.13054,173.357558 245.451719,168.557606 247.148697,163.127275 C248.215369,159.878774 250.372924,151.903096 253.621425,139.200002 C256.869926,126.496908 258.591121,119.224254 258.785061,117.38182 C258.979002,115.345446 259.827478,113.745462 261.330516,112.58182 C269.08813,106.521184 278.518339,102.206075 289.621425,99.6363653 C291.027493,99.3454548 291.76688,98.4606151 291.839607,96.9818198 C291.912335,95.5030245 291.269917,94.5454583 289.912334,94.1090925 C289.039603,93.8181819 288.094158,93.6727289 287.075971,93.6727289 C285.669903,93.6727289 284.166888,93.9393929 282.56688,94.4727289 C280.530506,95.2000052 278.34871,95.9151496 276.021425,96.6181834 C273.694141,97.3212173 271.100227,98.0727249 268.239607,98.8727289 C265.378986,99.672733 263.075979,100.339393 261.330516,100.872729 C262.106277,94.7636074 262.591121,90.2303193 262.785061,87.2727287 C262.882031,86.4484822 262.894153,84.957588 262.821425,82.8000014 C262.748697,80.6424148 262.736576,79.1030362 262.785061,78.1818195 C262.979002,75.5151395 263.282029,71.5394216 263.694152,66.2545466 C264.106275,60.9696716 264.409303,57.0181959 264.603243,54.4000009 C264.603243,54.0121202 264.651727,53.4424289 264.748698,52.69091 C264.845668,51.9393911 264.894152,51.3696998 264.894152,50.981819 C264.894152,46.8121012 262.809325,44.7272735 258.639607,44.7272735 L258.203243,44.7272735 C255.585048,44.7272735 254.033548,44.7757578 253.548697,44.872728 C251.318383,45.1636386 249.791126,46.3515055 248.966879,48.4363645 C248.433543,49.9394023 247.439614,52.0363511 245.985061,54.7272737 C244.530508,57.4181962 243.585063,59.248481 243.148697,60.2181828 C237.282001,72.969762 233.403252,81.6484632 231.512333,86.2545469 C229.718385,90.521235 227.43962,94.0363514 224.67597,96.8000016 C223.706268,97.6727333 222.627491,97.8060653 221.439606,97.2000016 C220.251721,96.593938 219.730514,95.6363718 219.87597,94.3272743 C220.06991,92.9696918 220.166879,91.9757623 220.166879,91.3454561 C220.263849,89.8909033 220.542634,86.654572 221.003242,81.636365 C221.463851,76.618158 221.839605,72.3151707 222.130515,68.7272739 C222.421426,65.1393771 222.566879,63.127276 222.566879,62.6909101 C222.469909,60.6060512 222.166881,59.1393992 221.657788,58.2909101 C221.148694,57.442421 220.069917,56.7272766 218.421424,56.1454555 C216.966871,55.6121195 215.524462,55.5999984 214.094151,56.1090919 C212.663841,56.6181853 211.512337,57.6242359 210.639606,59.1272737 C206.518373,65.8182164 202.954772,72.1696681 199.948697,78.1818195 C198.833539,80.3636486 198.275969,82.8848356 198.275969,85.745456 C198.275969,87.6363746 198.518391,89.6484757 199.003242,91.7818197 C199.644229,94.4419146 201.122007,97.0860946 203.436601,99.7143941 Z M126.337985,82.6909105 L126.337985,82.2545468 C126.337985,79.0060457 127.525852,76.2181947 129.901622,73.8909103 C132.228906,77.1878966 133.392531,80.2666537 133.392531,83.1272741 C133.392531,85.8909244 132.374359,88.8242284 130.337985,91.9272743 C127.768275,89.1636241 126.434955,86.0848669 126.337985,82.6909105 Z M155.797886,53.4545464 C155.894856,54.6666737 156.331216,55.6848453 157.106977,56.5090919 C157.882739,57.3333384 158.949395,57.7696977 160.306977,57.8181828 C160.840313,57.0424213 161.155462,56.2424293 161.252432,55.4181828 C161.349402,54.5939362 161.300918,53.8303075 161.106977,53.1272736 C160.913037,52.4242398 160.597888,51.4909158 160.161523,50.3272736 C159.967582,49.8424227 159.591828,49.5636376 159.03425,49.4909099 C158.476671,49.4181823 158.052433,49.5999987 157.761523,50.0363645 C156.355455,51.7818278 155.700916,52.9212103 155.797886,53.4545464 Z M210.639606,152.363639 C209.378993,154.593953 208.748697,156.77575 208.748697,158.909094 C208.748697,161.381833 209.621415,163.781809 211.366879,166.109094 C213.015372,168.242438 214.494145,169.309094 215.803242,169.309094 C217.20931,169.309094 218.421419,168.096985 219.439606,165.67273 C220.506278,163.296961 223.97291,154.40008 229.839606,138.981821 L230.203243,137.890911 C230.397183,137.30909 230.554757,136.812126 230.67597,136.400002 C230.797183,135.987879 230.918393,135.527278 231.039606,135.018184 C231.160819,134.509091 231.209303,134.096974 231.185061,133.78182 C231.160818,133.466667 231.075971,133.260609 230.930515,133.163639 L230.785061,133.163639 C229.912329,133.163639 226.785088,135.103013 221.403242,138.981821 C217.524435,141.987896 213.936592,146.448458 210.639606,152.363639 Z M300.686681,103.490911 L300.686681,99.563638 C300.686681,89.6241942 301.34122,81.1151883 302.650318,74.0363649 C303.377594,70.2545277 304.286676,64.8242789 305.37759,57.7454555 C306.468505,50.6666321 307.256376,45.721227 307.741227,42.9090916 C307.886682,41.9878749 308.371526,40.2424378 309.195772,37.6727279 C309.292742,37.4787875 309.438196,37.0909126 309.632136,36.5090915 C309.874561,35.684845 310.347284,35.018185 311.050318,34.5090915 C311.753352,33.999998 312.565465,33.7696973 313.486681,33.8181824 C315.329115,33.9151526 316.72304,34.0848478 317.6685,34.3272733 C318.613959,34.5696988 319.547283,35.13939 320.4685,36.0363642 C321.389716,36.9333384 322.177587,38.1090843 322.832136,39.563637 C323.486685,41.0181898 324.298798,43.175744 325.2685,46.0363644 C325.995776,44.5818117 326.504862,43.6363666 326.795773,43.2000007 C327.086683,42.81212 327.813949,41.7939483 328.977591,40.1454552 C330.141233,38.4969621 330.977588,37.3454584 331.486682,36.6909097 C331.995775,36.036361 332.783646,35.1636424 333.850318,34.0727278 C334.91699,32.9818133 335.983646,32.0969736 337.050318,31.4181823 C339.910939,29.5272638 342.626063,28.5818187 345.195773,28.5818187 L345.486682,28.5818187 C348.201847,28.6787888 350.989698,29.8181714 353.850318,32.0000005 C355.692752,33.4545533 357.304857,36.4363417 358.686682,40.9454552 C360.068507,45.4545688 360.807894,49.1393805 360.904864,52.0000009 C360.953349,53.0181878 360.929107,54.0848438 360.832137,55.2000009 C360.735167,56.315158 360.565471,57.6605992 360.323046,59.2363646 L359.813955,62.5454556 C359.620015,64.5333444 358.3473,67.672707 355.995773,71.9636376 C353.644246,76.2545682 350.650337,80.4727079 347.013955,84.6181832 C343.377573,88.7636586 340.056394,91.1999979 337.050318,91.9272743 C335.692736,92.2666699 333.462455,92.5333339 330.359409,92.7272743 C329.147282,92.8242445 327.983657,92.8484867 326.8685,92.8000016 C325.123037,92.8000016 323.547295,92.7030328 322.141227,92.5090925 C322.044257,93.4303092 321.789714,95.3211994 321.377591,98.1818198 C320.965467,101.04244 320.686682,103.272721 320.541227,104.872729 C320.444257,106.181827 320.383651,108.048475 320.359409,110.472729 C320.335166,112.896984 320.298803,114.496968 320.250318,115.272729 C320.056378,118.666686 318.892753,120.654545 316.759409,121.236366 C315.838192,121.478791 314.989716,121.600002 314.213954,121.600002 C312.08061,121.600002 310.456384,120.678799 309.341227,118.836366 C308.904861,118.206059 308.371533,117.672731 307.741227,117.236366 C305.123032,115.927268 303.316989,114.121226 302.323045,111.818184 C301.3291,109.515142 300.783651,106.739412 300.686681,103.490911 Z M323.232136,87.8545469 L324.395773,87.8545469 C326.626087,87.903032 328.565461,87.6848524 330.213954,87.2000015 C332.153358,86.6181804 333.874553,85.50304 335.377591,83.8545469 C340.080645,78.8605824 342.432136,72.6545838 342.432136,65.2363647 C342.432136,58.3029966 342.383652,53.1394118 342.286682,49.7454554 C342.286682,49.1151492 342.298803,48.157583 342.323046,46.8727281 C342.347288,45.5878731 342.359409,44.509096 342.359409,43.6363644 C342.359409,42.7636327 342.298804,41.866672 342.177591,40.9454552 C342.056378,40.0242385 341.801835,39.3575785 341.413955,38.9454552 C341.026074,38.5333319 340.516988,38.3757577 339.886682,38.4727279 C339.159405,38.5696981 338.480624,38.8606043 337.850318,39.3454552 C337.220012,39.8303061 336.577594,40.5333294 335.923045,41.4545462 C335.268497,42.3757629 334.771532,43.1272705 334.432136,43.7090916 C334.092741,44.2909127 333.595776,45.2242368 332.941227,46.5090917 C332.286678,47.7939466 331.910925,48.5333332 331.813954,48.7272735 C330.165461,51.6848641 329.220016,53.8181762 328.977591,55.1272737 C328.78365,56.0484904 328.613955,57.0302988 328.4685,58.0727283 C328.323045,59.1151577 328.177591,60.2787825 328.032136,61.5636374 C327.886681,62.8484923 327.76547,63.8303007 327.6685,64.509092 C327.426074,65.7212193 326.771535,69.1272459 325.704863,74.727274 C324.638191,80.3273021 323.813957,84.703016 323.232136,87.8545469 Z M347.746583,99.6363653 C347.552642,98.424238 347.479916,97.2121289 347.528401,96.0000016 C347.528401,93.9151427 347.795065,91.8060728 348.328401,89.6727288 C349.201132,86.3272575 350.704148,83.4424378 352.837492,81.0181832 C355.843567,77.5757417 358.388997,75.0666758 360.473856,73.4909103 C362.558714,71.9151449 365.782925,69.9636492 370.146583,67.6363648 C372.522352,66.3272673 378.025328,65.3333378 386.655674,64.6545465 C388.207197,64.5090913 389.479912,64.7757553 390.473856,65.4545466 C391.4678,66.1333378 392.473851,67.345447 393.492038,69.0909103 C394.84962,66.9090811 396.667784,63.9030505 398.946583,60.0727283 C401.225383,56.242406 402.485976,54.1333362 402.728402,53.7454555 C403.407193,52.7757536 404.546576,52.0000038 406.146584,51.4181827 C406.825375,51.1272721 407.601125,50.981819 408.473856,50.981819 C409.492043,50.981819 410.67991,51.1999987 412.037493,51.6363645 C414.461747,52.4606111 415.989005,53.5757514 416.619311,54.9818191 C417.007192,55.7575806 417.10416,56.8484788 416.91022,58.2545464 C415.746578,64.0242724 414.401137,70.6181459 412.873856,78.036365 C411.346576,85.454584 410.219315,91.0060437 409.492038,94.6909107 C408.764762,98.3757777 408.30416,100.872722 408.11022,102.18182 C407.91628,103.539402 408.376881,104.703027 409.492038,105.672729 C410.073859,106.15758 410.801125,106.400002 411.673856,106.400002 C412.449618,106.400002 413.346579,106.181822 414.364766,105.745456 C417.079931,104.145448 421.29807,101.066691 427.019311,96.5090925 C427.746588,96.1696969 428.3284,96.2181813 428.764766,96.6545471 C429.201132,97.0909129 429.613249,97.4545456 430.001129,97.7454562 C430.631436,98.3757624 430.776889,99.0060591 430.437493,99.6363653 C429.176881,102.739411 424.813288,106.763613 417.346584,111.709093 C414.340508,112.92122 411.892048,113.575759 410.001129,113.672729 C409.807189,113.672729 409.589009,113.696971 409.346584,113.745456 C407.649605,113.745456 405.782957,113.309097 403.746584,112.436366 C402.292031,111.806059 400.801137,111.066673 399.273856,110.218184 C397.746576,109.369695 395.964775,108.327281 393.928402,107.090911 C391.892028,105.854541 390.316286,104.921217 389.201129,104.290911 C388.764763,104.775762 388.049619,105.599996 387.055674,106.763638 C386.06173,107.92728 385.17689,108.909089 384.401129,109.709093 C383.625367,110.509097 382.679922,111.418179 381.564765,112.436366 C380.255667,113.503038 378.72841,114.351514 376.982947,114.98182 C375.237483,115.660611 373.055687,116.048486 370.437492,116.145457 L369.710219,116.145457 C367.33445,116.145457 364.789021,115.709097 362.073856,114.836366 C358.001108,113.624238 354.716292,111.612137 352.21931,108.800002 C349.722328,105.987867 348.231433,102.933352 347.746583,99.6363653 Z M364.61931,107.854547 C366.946595,107.951517 368.413247,107.915154 369.01931,107.745456 C369.625374,107.575759 370.534456,106.909099 371.746583,105.745456 C373.782957,103.806053 375.26173,102.375764 376.182947,101.454547 C377.104163,100.53333 378.352636,99.1030417 379.928401,97.163638 C381.504167,95.2242343 382.643549,93.5272816 383.346583,92.0727288 C384.049617,90.6181761 384.667793,88.8242546 385.201129,86.6909106 C385.637494,84.9939323 385.855674,83.2969796 385.855674,81.6000014 C385.855674,81.1151505 385.831432,80.6303068 385.782947,80.1454559 L385.492038,80.1454559 C382.922328,80.1454559 379.795086,82.0848305 376.110219,85.9636378 C372.231412,89.9879004 369.079928,94.2787667 366.655674,98.8363653 C364.958696,102.036381 364.134461,104.484842 364.182946,106.18182 C364.182946,106.860611 364.3284,107.418181 364.61931,107.854547 Z M550.076204,111.281501 C547.744146,114.590447 544.330565,116.817807 539.835378,117.963638 C539.302042,118.109094 538.792957,118.18182 538.308106,118.18182 C536.708098,118.18182 535.374778,117.503039 534.308106,116.145457 C532.902038,114.399993 531.859624,111.975775 531.180833,108.872729 C530.550527,104.606041 530.162652,101.333346 530.017196,99.0545471 C529.968711,98.3757558 529.944469,97.600006 529.944469,96.7272744 C529.944469,94.6424154 530.06568,92.0000176 530.308106,88.8000015 L537.071742,88.8000015 C544.053595,88.8000015 547.762649,85.1151898 548.199015,77.7454559 C548.2475,77.3575751 548.271742,76.9697002 548.271742,76.5818195 C548.271742,74.9818114 548.005078,73.5757649 547.471742,72.3636376 C546.841436,70.8605997 545.799022,69.1394048 544.344469,67.2000011 C542.889917,65.2121124 541.14448,63.8545502 539.108106,63.1272738 C538.817195,62.9818185 538.514168,62.8606076 538.199015,62.7636374 C537.883862,62.6666672 537.605077,62.5939407 537.362651,62.5454556 C537.120226,62.4969705 536.95053,62.4484861 536.85356,62.4000011 C535.108097,61.81818 533.435386,61.5272738 531.835378,61.5272738 C529.556579,61.4787887 527.399025,62.0363589 525.362651,63.2000011 C521.871724,65.2363749 519.108116,68.0969524 517.071742,71.7818194 C513.774755,77.5515453 512.126287,83.4181534 512.126287,89.3818197 C512.126287,94.4773728 513.321549,99.639266 515.712102,104.867606 C514.410296,107.169718 513.358697,108.868389 512.557296,109.963638 C509.793645,113.69699 506.787615,116.642415 503.539114,118.800002 C500.290612,120.957589 496.557316,122.060608 492.339113,122.109093 L491.90275,122.109093 C489.381525,122.109093 487.417908,121.333343 486.011841,119.78182 C484.848198,118.472723 484.266386,116.921223 484.266386,115.127275 C484.266386,114.642424 484.31487,114.109096 484.411841,113.527275 C485.333057,107.466638 486.47244,102.836381 487.830022,99.6363653 C491.030038,92.2181463 494.763335,84.9212494 499.030023,77.7454559 C500.14518,75.5636267 501.575468,74.0363692 503.320932,73.1636376 C504.145178,72.824242 504.908807,72.9333318 505.611841,73.4909103 C506.314875,74.0484889 506.59366,74.7878754 506.448205,75.7090922 C506.254264,76.9697046 506.496686,77.6000013 507.175477,77.6000013 C509.454277,77.6000013 511.102745,76.6787984 512.120932,74.8363649 C512.605783,74.0121183 512.848205,73.1151576 512.848205,72.1454558 C512.848205,70.9818136 512.508814,69.7212201 511.830023,68.3636375 C509.745164,64.4363451 507.054282,61.503041 503.757295,59.5636374 C501.769407,58.3999952 499.563368,57.8181828 497.139114,57.8181828 C495.587591,57.8181828 493.939122,58.0606046 492.193659,58.5454555 C487.490605,59.7575828 483.563371,61.9393792 480.41184,65.0909102 C475.902727,69.4060834 472.387611,73.8302816 469.866386,78.3636377 C467.345161,82.8969938 466.084568,87.9030044 466.084568,93.3818198 C466.084568,98.3272991 466.533048,102.787861 467.430022,106.763638 C468.123056,109.835465 468.910149,112.284971 469.791314,114.112196 C466.981287,117.11149 464.131771,118.58923 461.242696,118.545457 C460.757845,118.496971 460.297244,118.448487 459.860878,118.400002 C459.230572,118.254547 458.697244,117.963641 458.260878,117.527275 C457.436631,116.557573 457.024514,115.321222 457.024514,113.818184 C457.024514,113.090907 457.121483,112.290915 457.315423,111.418184 C457.606334,110.157571 458.030572,108.460619 458.588151,106.327275 C459.145729,104.19393 459.642694,102.230314 460.07906,100.436365 C460.515426,98.6424169 460.903301,96.9454642 461.242696,95.3454562 C462.600279,89.3333048 463.27906,81.2849003 463.27906,71.2000012 L463.27906,67.3454557 C463.230575,66.5212091 462.248766,65.5394007 460.333605,64.4000011 C458.418444,63.2606014 456.188163,62.2909141 453.642696,61.4909101 C451.097229,60.6909061 448.515436,60.1939414 445.897241,60.000001 L444.87906,60.000001 C442.745716,60.000001 441.097247,60.5090868 439.933605,61.5272738 C440.127545,57.939377 440.224514,55.9030337 440.224514,55.4181828 C440.224514,49.4060314 437.436663,46.4000008 431.860878,46.4000008 C431.472997,46.4000008 431.085122,46.424243 430.697241,46.4727281 C428.563897,46.6181833 427.012397,47.0545426 426.042696,47.781819 C425.072994,48.5090954 424.224517,49.8666576 423.497241,51.8545463 C423.157845,52.6787929 422.98815,53.4545427 422.98815,54.1818191 C422.98815,55.0060657 423.20633,55.7575733 423.642696,56.4363646 C424.418457,57.696977 425.630566,58.8848439 427.279059,60.000001 C430.382105,61.8909196 432.903292,63.1999974 434.842696,63.9272738 C436.782099,64.7515204 437.982087,65.5272702 438.442696,66.2545466 C438.903304,66.9818229 439.036636,68.2909008 438.842696,70.1818194 C438.648755,72.2666783 438.333607,75.2727089 437.897241,79.2000013 C437.460875,83.1272938 437.145727,86.0121135 436.951787,87.8545469 C436.660876,90.8121375 436.515423,93.5999885 436.515423,96.2181834 C436.515423,100.872752 437.000267,104.896954 437.969969,108.290911 C439.085126,112.169718 440.976016,115.248475 443.642696,117.527275 C448.103324,121.018201 453.848722,123.393935 460.87906,124.654548 C462.091187,124.896973 463.254812,125.018184 464.369969,125.018184 C468.321566,125.018184 471.949309,123.595719 475.253248,120.750759 C475.287833,120.779374 475.322516,120.80791 475.357295,120.836366 C477.223971,122.363646 479.054256,123.539392 480.848204,124.363638 C482.642153,125.187885 484.484558,125.866666 486.375477,126.400002 C488.266396,126.933338 489.926985,127.200002 491.357295,127.200002 C492.787605,127.200002 494.06032,127.151518 495.175477,127.054548 C497.551247,126.521212 500.169402,125.527282 503.030023,124.072729 C506.569434,121.79393 509.733039,119.418196 512.520932,116.945457 C515.066446,114.687696 517.14709,112.531018 518.762917,110.475368 C520.650277,113.40476 522.753205,115.86447 525.071742,117.854547 C527.980847,120.35153 531.520206,121.939393 535.689924,122.618184 C537.241447,122.909094 538.744462,123.054548 540.199015,123.054548 C543.544486,123.054548 546.599001,122.30304 549.362651,120.800002 C550.054973,120.439215 550.738467,120.016656 551.413136,119.532326 C552.525483,123.112242 554.316491,126.165084 556.786188,128.690911 C559.986204,131.963655 564.204344,134.157572 569.440734,135.27273 C571.428623,135.709095 573.271029,135.927275 574.968007,135.927275 C577.198321,135.927275 579.210422,135.5394 581.004371,134.763639 C584.107416,133.406056 587.040721,130.642447 589.804371,126.472729 C591.258924,124.38787 593.101329,120.375789 595.331644,114.436366 C597.561958,108.496942 599.089215,103.127298 599.913462,98.3272744 C600.155887,97.1636322 599.780133,96.2909136 598.786189,95.7090925 C597.792245,95.1272714 596.883163,95.2484823 596.058916,96.0727289 C595.62255,96.5090947 595.331644,97.1151493 595.186189,97.8909107 C594.313457,100.557591 592.277114,106.109051 589.077098,114.545456 C587.234665,119.539421 583.4044,124.218162 577.586189,128.58182 C576.325576,129.551522 575.222557,129.890913 574.277098,129.600002 C573.331638,129.309092 572.761947,128.412131 572.568007,126.909093 C572.325581,125.115145 572.20437,123.006075 572.20437,120.58182 C572.20437,110.448436 574.240714,95.0304081 578.313461,74.327274 C578.749827,72.3393852 579.464972,69.515171 580.458916,65.8545466 C581.45286,62.1939221 582.143763,59.515161 582.531643,57.8181828 C583.54983,52.8727034 584.495275,47.8545717 585.368007,42.7636371 C585.416492,42.4242414 585.440734,42.0606087 585.440734,41.672728 C585.440734,39.8787796 584.858922,38.0363737 583.69528,36.1454552 C582.289212,33.9151409 580.543775,32.4848522 578.458916,31.854546 C577.92558,31.7090907 577.14983,31.5636376 576.131643,31.4181823 C575.113456,31.2727271 574.313464,31.127274 573.731643,30.9818187 C573.489218,31.3212143 573.246796,31.6848471 573.00437,32.0727278 C572.761945,32.4606085 572.616492,32.7030304 572.568007,32.8000006 C571.598305,35.17577 569.380145,40.5454134 565.913461,48.9090917 C562.446777,57.2727701 559.840743,63.7575538 558.095279,68.3636375 C557.125577,70.8363772 555.792257,75.6605715 554.095279,82.836365 C553.222548,86.4242618 552.677098,88.6787848 552.458916,89.6000015 C552.240733,90.5212183 551.816494,92.5333194 551.186188,95.6363653 C550.555882,98.7394111 550.192249,101.115145 550.095279,102.763638 C549.998309,104.072736 549.949825,105.67272 549.949825,107.563638 C549.99831,108.048489 550.022552,108.533333 550.022552,109.018184 C550.022552,109.783803 550.040436,110.538242 550.076204,111.281501 Z M530.889924,76.1454558 C530.841439,76.8727322 530.926286,77.9636304 531.144469,79.4181832 C531.362652,80.8727359 531.495984,81.9636341 531.544469,82.6909105 C534.356605,82.3515148 536.320221,82.0363665 537.435378,81.7454559 C539.180842,81.3575752 540.356588,80.7272785 540.962651,79.8545468 C541.568715,78.9818152 541.702047,77.6969795 541.362651,76.0000013 C541.217196,74.8363591 540.805079,73.5757656 540.126288,72.218183 C539.156586,69.6484732 537.992961,68.3636375 536.635378,68.3636375 C535.568706,68.3636375 534.356597,69.1636295 532.999015,70.7636376 C531.932343,71.9272798 531.229319,73.7212012 530.889924,76.1454558 Z" id="Story-Parcel-Copy-3" fill="#000000"></path>
    </g>
</svg>